<?xml version="1.0" standalone="no"?>
<!DOCTYPE svg PUBLIC "-//W3C//DTD SVG 20010904//EN"
 "http://www.w3.org/TR/2001/REC-SVG-20010904/DTD/svg10.dtd">
<svg version="1.0" xmlns="http://www.w3.org/2000/svg"
 width="672.000000pt" height="655.000000pt" viewBox="0 0 672.000000 655.000000"
 preserveAspectRatio="xMidYMid meet">

<g transform="translate(0.000000,655.000000) scale(0.100000,-0.100000)"
fill="#000000" stroke="none">
<path d="M3215 6543 c-420 -34 -709 -97 -1025 -225 -1102 -445 -1873 -1431
-2035 -2604 -35 -248 -35 -615 0 -874 44 -327 156 -703 286 -963 28 -53 31
-57 52 -46 77 40 144 125 190 240 19 47 65 272 157 775 73 390 134 724 137
742 l6 32 -107 0 c-58 0 -106 3 -106 6 0 3 21 76 46 162 25 87 48 165 50 174
4 14 20 18 92 20 l86 3 33 174 c35 189 68 300 118 401 142 284 439 461 769
460 72 -1 210 -20 220 -31 6 -8 -111 -374 -120 -374 -5 0 -33 6 -63 14 -98 25
-236 -6 -314 -70 -93 -77 -144 -209 -182 -479 -3 -25 -8 -57 -11 -72 l-6 -28
131 0 131 0 -6 -24 c-3 -13 -27 -93 -53 -178 l-47 -153 -106 -3 c-91 -2 -108
-5 -112 -20 -3 -9 -44 -233 -91 -497 -196 -1097 -203 -1125 -322 -1313 -50
-79 -186 -210 -261 -252 -105 -59 -102 -45 -32 -146 226 -323 525 -616 861
-841 748 -503 1688 -672 2576 -463 1023 241 1877 976 2277 1960 110 271 167
498 218 865 20 138 16 620 -5 770 -41 287 -106 547 -198 783 -44 112 -51 117
-112 86 -143 -74 -209 -211 -271 -568 -168 -962 -161 -913 -148 -973 15 -71
34 -100 80 -121 20 -9 38 -17 40 -18 2 -1 -20 -77 -49 -168 l-53 -166 -30 0
c-69 1 -171 31 -237 70 -76 45 -112 83 -145 153 l-22 49 -30 -44 c-61 -89
-166 -166 -272 -199 -83 -27 -228 -29 -319 -5 -281 72 -357 291 -265 761 69
355 151 555 277 676 185 179 541 198 709 38 23 -22 42 -38 43 -37 0 2 16 73
34 158 47 216 121 438 172 517 76 116 199 213 322 252 20 7 37 15 37 17 0 10
-108 177 -168 259 -421 574 -1030 1008 -1692 1203 -366 108 -814 162 -1135
135z m-499 -2433 c178 -46 309 -167 351 -327 34 -130 -21 -543 -98 -744 -88
-228 -287 -406 -526 -471 -106 -28 -301 -30 -388 -4 -178 55 -299 171 -341
329 -53 200 41 697 169 894 45 69 172 192 239 232 75 43 165 79 242 96 96 21
259 19 352 -5z m1484 -8 c166 -59 275 -164 316 -303 44 -145 -16 -584 -108
-794 -118 -270 -365 -439 -674 -461 -341 -24 -584 185 -584 502 0 133 43 385
92 534 91 282 299 476 573 536 90 20 314 12 385 -14z m832 -1997 l3 -145 59
75 59 75 59 0 59 0 -20 -28 c-11 -16 -27 -35 -36 -42 -9 -7 -29 -30 -46 -51
l-30 -38 70 -111 c39 -61 71 -113 71 -115 0 -3 -27 -5 -60 -5 l-59 0 -42 73
c-23 39 -44 74 -45 76 -2 2 -13 -4 -24 -14 -16 -14 -20 -31 -20 -77 l0 -58
-50 0 -50 0 0 265 0 265 50 0 49 0 3 -145z m-1934 53 c3 -56 3 -57 35 -60 29
-3 32 -6 32 -38 0 -32 -3 -35 -33 -38 l-33 -3 3 -102 3 -102 30 -5 c27 -5 30
-9 33 -48 l3 -42 -45 0 c-104 0 -126 34 -126 189 0 106 -1 110 -22 113 -19 2
-23 9 -23 38 0 29 4 36 23 38 20 3 22 9 22 56 0 29 3 56 7 60 4 4 25 6 48 4
l40 -3 3 -57z m-1018 -63 c0 -14 3 -14 30 0 69 35 150 9 181 -58 15 -35 19
-66 19 -179 l0 -138 -49 0 -49 0 -4 136 c-3 120 -5 137 -22 150 -25 18 -57 18
-82 0 -17 -13 -19 -30 -22 -150 l-4 -136 -49 0 -49 0 0 188 c0 104 3 192 7
195 3 4 26 7 50 7 32 0 43 -4 43 -15z m657 -11 c15 -11 35 -31 45 -45 18 -24
42 -135 32 -150 -3 -5 -57 -9 -120 -9 -106 0 -114 -1 -114 -19 0 -48 91 -78
138 -46 20 15 24 14 52 -6 37 -28 37 -32 4 -58 -59 -47 -170 -48 -233 -4 -37
26 -61 90 -61 166 0 95 34 159 100 186 38 16 127 7 157 -15z m709 -84 c16 -60
31 -110 34 -110 3 0 22 48 41 108 l35 107 35 3 34 3 39 -116 c21 -64 40 -114
43 -112 2 3 11 31 19 64 8 32 22 82 30 111 l15 52 49 0 c28 0 50 -3 50 -7 0
-5 -26 -91 -58 -193 l-57 -185 -42 -3 -41 -3 -38 115 c-21 63 -41 113 -44 110
-3 -3 -21 -53 -41 -112 l-36 -107 -43 0 -43 0 -59 190 c-32 105 -58 191 -58
193 0 1 24 2 54 2 l53 0 29 -110z m814 87 c56 -37 75 -80 75 -172 0 -103 -22
-150 -86 -183 -77 -41 -159 -21 -213 52 -18 23 -21 42 -21 124 0 83 3 102 23
133 28 46 73 68 138 69 37 0 60 -6 84 -23z m336 8 c5 -13 8 -13 27 0 26 18 96
20 132 3 14 -6 25 -14 25 -17 -1 -3 -16 -24 -36 -45 -26 -31 -37 -37 -46 -28
-18 18 -63 14 -81 -6 -13 -14 -17 -45 -19 -147 l-3 -130 -47 -3 -48 -3 0 195
0 196 45 0 c31 0 47 -5 51 -15z"/>
<path d="M2363 3821 c-91 -42 -174 -160 -212 -301 -63 -231 -87 -467 -57 -558
33 -100 123 -143 243 -118 176 36 260 185 324 576 24 145 22 285 -4 337 -30
58 -71 78 -167 81 -68 2 -94 -1 -127 -17z"/>
<path d="M3812 3819 c-23 -12 -63 -44 -88 -72 -78 -86 -108 -161 -155 -387
-39 -185 -48 -316 -26 -390 61 -211 355 -176 467 54 99 204 156 659 94 743
-42 57 -79 73 -168 73 -62 0 -91 -5 -124 -21z"/>
<path d="M2630 2022 c-26 -8 -50 -34 -50 -54 0 -16 8 -18 65 -18 55 0 65 3 65
18 0 9 -4 22 -8 29 -10 16 -54 31 -72 25z"/>
<path d="M4126 1998 c-19 -27 -21 -125 -5 -162 15 -31 54 -42 84 -22 40 26 45
154 8 191 -22 23 -69 19 -87 -7z"/>
<path d="M5289 3837 c-143 -54 -220 -189 -279 -491 -40 -198 -46 -269 -30
-351 23 -121 92 -172 219 -163 83 6 129 27 187 87 78 79 129 209 173 442 52
272 32 404 -67 462 -43 25 -153 33 -203 14z"/>
</g>
</svg>
